PathFileType        4      (X/Y/Z)      Static.trc         
DataRate	CameraRate	NumFrames	NumMarkers	Units	OrigDataRate	OrigDataStartFrame	OrigNumFrames
100.0	100.0	6	37	mm	100.0	134	267
Frame#	Time	T2			T10			MANU			LASI			RASI			SACR			LTHI			LKAX			LKD1			LKD2			LKNE			LTIB			LANK			LMED			LHEE			LTOE			LD1M			LD5M			RTHI			RKAX			RKD1			RKD2			RKNE			RTIB			RANK			RMED			RHEE			RTOE			RD1M			RD5M			RHJC			LHJC			RKJC			LKJC			MASI			RAJC			LAJC			
		X1	Y1	Z1	X2	Y2	Z2	X3	Y3	Z3	X4	Y4	Z4	X5	Y5	Z5	X6	Y6	Z6	X7	Y7	Z7	X8	Y8	Z8	X9	Y9	Z9	X10	Y10	Z10	X11	Y11	Z11	X12	Y12	Z12	X13	Y13	Z13	X14	Y14	Z14	X15	Y15	Z15	X16	Y16	Z16	X17	Y17	Z17	X18	Y18	Z18	X19	Y19	Z19	X20	Y20	Z20	X21	Y21	Z21	X22	Y22	Z22	X23	Y23	Z23	X24	Y24	Z24	X25	Y25	Z25	X26	Y26	Z26	X27	Y27	Z27	X28	Y28	Z28	X29	Y29	Z29	X30	Y30	Z30	X31	Y31	Z31	X32	Y32	Z32	X33	Y33	Z33	X34	Y34	Z34	X35	Y35	Z35	X36	Y36	Z36	X37	Y37	Z37	
134	1.33	278.71159	1105.81787	-4.95074	286.81977	921.0372	-0.94588	392.85008	1085.16538	1.74325	430.73839	721.94658	-77.11084	433.37398	736.73036	95.24488	294.58542	770.62641	3.92846	389.60444	431.73899	-156.71097	386.88951	381.64332	-217.60009	477.26422	392.38039	-121.93838	408.91027	280.30423	-137.64336	386.58933	369.76394	-125.43887	319.8811	159.31371	-183.6377	295.23976	68.71949	-145.98223	316.6119	71.79145	-71.79171	245.67953	20.69235	-109.66071	421.86851	30.62097	-135.59079	417.09323	16.81638	-85.31373	381.53034	16.99504	-176.59849	403.88591	447.54745	167.97283	408.08337	355.69667	227.64279	481.25042	413.98066	122.58053	454.28274	284.74718	120.87321	400.46503	361.7285	129.70536	307.96172	148.29823	156.49502	293.57674	62.04462	112.17693	321.61715	69.43615	39.50801	250.85028	19.50639	68.52906	423.70618	28.58004	108.10317	413.98632	13.97664	52.66283	384.06224	15.42068	147.458	372.38877	687.82894	78.17671	370.42686	676.82406	-50.12297	396.78815	364.63966	82.43745	386.4375	363.75548	-78.82476	432.05619	729.33847	9.06702	305.18878	57.6701	75.66441	303.75202	62.33097	-109.69865	
135	1.34	278.74005	1105.7605	-4.72397	286.70955	921.01989	-0.78406	392.762	1085.16126	1.83539	430.56811	721.96258	-77.15355	433.42714	736.73091	95.21706	294.49862	770.60814	4.02695	389.4986	431.75686	-156.74447	386.84032	381.65912	-217.63214	477.22993	392.40988	-121.98906	408.88327	280.32058	-137.68415	386.55603	369.77971	-125.47303	319.84953	159.32259	-183.65163	295.2312	68.71838	-145.98845	316.62353	71.79961	-71.79932	245.6887	20.68908	-109.65626	421.86498	30.61704	-135.59404	417.0917	16.81924	-85.31408	381.53121	16.99318	-176.60743	403.98065	447.52905	167.94809	408.12064	355.68318	227.60777	481.28823	413.95655	122.55269	454.3102	284.72502	120.84144	400.50143	361.71289	129.6746	307.97301	148.30193	156.48813	293.58194	62.04913	112.17773	321.62668	69.42962	39.50454	250.85182	19.51182	68.53173	423.70975	28.58077	108.10236	413.99196	13.97468	52.66375	384.06723	15.42387	147.45924	372.42416	687.81531	78.22145	370.29595	676.82205	-50.08787	396.82398	364.62315	82.40668	386.41224	363.7711	-78.85892	431.99763	729.34675	9.03176	305.19538	57.66951	75.66387	303.75427	62.33417	-109.70483	
136	1.35	278.78493	1105.69744	-4.49599	286.59681	921.00794	-0.6259	392.6753	1085.15768	1.92625	430.39474	721.97546	-77.19811	433.51355	736.74519	95.20183	294.40271	770.58976	4.12889	389.38928	431.77137	-156.77181	386.79626	381.67408	-217.65946	477.19323	392.43444	-122.0281	408.85951	280.33305	-137.71757	386.52226	369.79106	-125.50144	319.82351	159.32951	-183.6616	295.22255	68.71839	-145.99055	316.63339	71.80773	-71.80321	245.69304	20.68737	-109.65128	421.86084	30.6108	-135.59563	417.09069	16.82102	-85.31459	381.53158	16.99025	-176.61337	404.06733	447.51242	167.9257	408.15814	355.67401	227.57638	481.32211	413.93317	122.5208	454.33153	284.7044	120.81022	400.53268	361.69973	129.64626	307.98154	148.30516	156.48303	293.58687	62.05457	112.18011	321.63383	69.42394	39.50318	250.84802	19.51846	68.53564	423.71445	28.58251	108.10295	413.99324	13.9721	52.66594	384.0736	15.42638	147.46228	372.48584	687.80652	78.29373	370.16432	676.81246	-50.03458	396.85211	364.60816	82.37846	386.38367	363.78058	-78.88755	431.95415	729.36032	9.00186	305.20082	57.66979	75.66515	303.75566	62.33808	-109.70713	
137	1.36	278.83818	1105.63244	-4.2693	286.4848	921.0015	-0.4726	392.58997	1085.15684	2.01262	430.21937	721.98616	-77.24456	433.63188	736.77327	95.19736	294.30065	770.57211	4.23122	389.27765	431.78288	-156.79247	386.75174	381.68872	-217.68105	477.15275	392.45637	-122.059	408.83692	280.34314	-137.74505	386.48644	369.79905	-125.52381	319.80383	159.33409	-183.66885	295.21587	68.71895	-145.98988	316.63994	71.81427	-71.80622	245.69336	20.6867	-109.64609	421.85713	30.60324	-135.59778	417.08977	16.82237	-85.31576	381.53116	16.9861	-176.61706	404.1421	447.49794	167.9027	408.1936	355.66905	227.54722	481.35063	413.91203	122.48281	454.34379	284.68544	120.77714	400.55614	361.69015	129.61835	307.98686	148.30751	156.4773	293.59145	62.05926	112.18215	321.63763	69.41953	39.50233	250.84133	19.52369	68.53985	423.72032	28.58475	108.10319	413.99142	13.96819	52.66702	384.07983	15.42782	147.46419	372.5732	687.80359	78.39093	370.03313	676.79695	-49.96453	396.86976	364.59636	82.35087	386.35225	363.78522	-78.91033	431.92563	729.37972	8.9764	305.20465	57.67026	75.66651	303.75645	62.34161	-109.70772	
138	1.37	278.8884	1105.57031	-4.04744	286.37632	921.00001	-0.32543	392.506	1085.16055	2.09236	430.04363	721.99569	-77.29258	433.76795	736.81086	95.19808	294.19672	770.55579	4.33056	389.16436	431.79228	-156.80654	386.70288	381.70341	-217.69655	477.10923	392.47814	-122.08569	408.81348	280.35257	-137.76844	386.44833	369.80553	-125.54045	319.78911	159.3364	-183.67447	295.21222	68.71923	-145.9889	316.64278	71.81776	-71.81083	245.69143	20.68609	-109.64086	421.85463	30.59553	-135.60289	417.08851	16.8243	-85.31773	381.53058	16.98165	-176.61977	404.20366	447.48581	167.87694	408.22629	355.66761	227.51856	481.37314	413.89454	122.43835	454.34647	284.66863	120.74073	400.57124	361.68464	129.58959	307.98886	148.30903	156.46919	293.59565	62.06172	112.18222	321.63782	69.41632	39.50046	250.8338	19.52578	68.54345	423.72653	28.58707	108.10143	413.98865	13.96298	52.66508	384.08483	15.42792	147.46277	372.67505	687.80567	78.50137	369.90299	676.77856	-49.88554	396.87641	364.58886	82.32265	386.31958	363.78754	-78.9275	431.90579	729.40328	8.95275	305.20673	57.67007	75.66635	303.75691	62.34348	-109.70912	
139	1.38	278.92609	1105.51532	-3.83434	286.2723	921.00303	-0.18529	392.42267	1085.16941	2.16621	429.86897	722.00427	-77.34017	433.89635	736.84904	95.1973	294.09475	770.54179	4.42479	389.05003	431.80055	-156.81399	386.64725	381.7179	-217.70598	477.06316	392.50057	-122.10973	408.78631	280.36219	-137.78803	386.4071	369.81193	-125.55135	319.77638	159.33672	-183.67815	295.2111	68.71814	-145.98928	316.64249	71.81741	-71.81689	245.68924	20.68463	-109.63608	421.85362	30.58828	-135.61078	417.08682	16.82708	-85.31971	381.53009	16.97747	-176.6214	404.25274	447.4757	167.84893	408.25665	355.66836	227.49033	481.3887	413.88135	122.38975	454.34086	284.65445	120.70171	400.57858	361.68258	129.56112	307.98824	148.30995	156.45916	293.59955	62.0609	112.18061	321.6347	69.41331	39.49792	250.82705	19.52473	68.54585	423.73167	28.58889	108.09777	413.98685	13.95716	52.66004	384.0882	15.42651	147.45869	372.77012	687.8099	78.60781	369.7726	676.76116	-49.80925	396.87271	364.58537	82.29496	386.28563	363.78982	-78.93891	431.88266	729.42665	8.92856	305.20722	57.6682	75.66496	303.75711	62.34268	-109.71212	
